Coordinates
version=1
nRows=19
nColumns=33
inDegrees=yes

Units are S.I. units (second, meters, Newtons, ...)
Angles are in degrees.

endheader
time	ground_thorax_rot_x	ground_thorax_rot_y	ground_thorax_rot_z	ground_thorax_tx	ground_thorax_ty	ground_thorax_tz	clav_prot_r	clav_elev_r	scapula_abduction_r	scapula_elevation_r	scapula_upward_rot_r	scapula_winging_r	shoulder_elv_r	plane_of_elev_r	axial_rot_r	elbow_flexion_r	pro_sup_r	wrist_flex_r	wrist_dev_r	clav_prot_l	clav_elev_l	scapula_abduction_l	scapula_elevation_l	scapula_upward_rot_l	scapula_winging_l	shoulder_elv_l	plane_of_elev_l	axial_rot_l	elbow_flexion_l	pro_sup_l	wrist_flex_l	wrist_dev_l
      4.51000000	    -30.29644025	    -27.98449657	     37.90628871	    -11.35742237	    789.35190368	    -43.67253026	     29.78107905	    -45.00000000	     39.09294105	    -45.00000000	    -45.00000000	  -1545.72682376	  -2084.41695864	     20.17787084	   -142.06092816	    360.25949750	    171.05156814	     13.20751751	     13.06268779	     -1.18560213	     31.50772019	    -28.58346331	    -45.00000000	    -45.00000000	  -2794.04177411	   1350.09660493	    134.11142803	   -111.21556004	   2150.34794645	   -312.73589808	     11.67953495	    -16.37507849
      4.52000000	    -30.60217068	    -27.74916289	     37.39393852	    -13.32317864	    790.54454271	    -43.69026131	     29.73847893	    -45.00000000	     39.16576486	    -45.00000000	    -45.00000000	  -1545.81594766	  -2084.49507260	     20.25819053	   -142.09833686	    360.26427651	    170.80381496	     13.15908246	     13.25247376	     -1.19239135	     31.56548528	    -28.67742159	    -45.00000000	    -45.00000000	  -2793.89162633	   1350.13174019	    133.91125748	   -111.10956079	   2150.34084067	   -312.98197805	     11.83757603	    -16.44321844
      4.53000000	    -30.63826510	    -27.68639671	     37.25323954	    -15.28896634	    791.83099013	    -43.74051153	     29.66360492	    -45.00000000	     39.15964386	    -45.00000000	    -45.00000000	  -1545.87997619	  -2084.31258222	     20.14514387	   -142.21103372	    360.13651367	    170.50570065	     13.20140625	     13.23907885	     -1.12443638	     31.61237482	    -28.68320004	    -45.00000000	    -45.00000000	  -2794.01215053	   1350.14946756	    134.06500871	   -111.00649372	   2150.30727453	   -313.20914974	     11.80129208	    -16.33995435
      4.54000000	    -30.87249148	    -27.63169602	     36.91431117	    -17.24566767	    793.19758670	    -43.82105915	     29.71714681	    -45.00000000	     39.10409136	    -45.00000000	    -45.00000000	  -1545.93505788	  -2084.37178535	     20.23597619	   -142.30307286	    360.21155612	    170.18911521	     13.14690166	     13.35729891	     -1.19088632	     31.62831955	    -28.75189774	    -45.00000000	    -45.00000000	  -2793.76844465	   1350.21489711	    133.95993555	   -110.89369723	   2150.24025254	   -313.42832198	     11.97653555	    -16.41802560
      4.55000000	    -31.00112262	    -27.46982839	     36.58345715	    -19.18122010	    794.61267759	    -43.92056806	     29.62841899	    -45.00000000	     39.14720795	    -45.00000000	    -45.00000000	  -1546.02405184	  -2084.28018602	     20.22716836	   -142.37542265	    360.08387250	    169.87191459	     13.15368714	     13.44764176	     -1.12749325	     31.65693183	    -28.84758749	    -45.00000000	    -45.00000000	  -2793.77094989	   1350.24246805	    133.95373583	   -110.73009404	   2150.23526589	   -313.63301049	     12.01011515	    -16.40233134
      4.56000000	    -31.18599159	    -27.37391931	     36.23693671	    -21.08820022	    796.06844080	    -44.03820156	     29.62494493	    -45.00000000	     39.14420463	    -45.00000000	    -45.00000000	  -1546.08446400	  -2084.26952166	     20.28189666	   -142.50056882	    360.06777368	    169.53514573	     13.14536072	     13.54775897	     -1.17284938	     31.70362794	    -28.92709354	    -45.00000000	    -45.00000000	  -2793.59073931	   1350.31277526	    133.85320918	   -110.57414190	   2150.17405647	   -313.82304897	     12.15345658	    -16.46884339
      4.57000000	    -31.31389443	    -27.17002250	     35.89962906	    -22.96737186	    797.56352741	    -44.17296923	     29.56425574	    -45.00000000	     39.19661768	    -45.00000000	    -45.00000000	  -1546.20023103	  -2084.21074960	     20.26564351	   -142.63303104	    359.97667788	    169.21430546	     13.13029511	     13.66791469	     -1.11249095	     31.73801961	    -29.02319629	    -45.00000000	    -45.00000000	  -2793.58735135	   1350.31225661	    133.80268985	   -110.39608440	   2150.14331654	   -314.00605998	     12.20297024	    -16.47227932
      4.58000000	    -31.43386757	    -27.17234452	     35.67980434	    -24.81561908	    799.09423252	    -44.32342269	     29.54777343	    -45.00000000	     39.16664164	    -45.00000000	    -45.00000000	  -1546.20727480	  -2084.12896454	     20.27063594	   -142.77503593	    359.98797199	    168.85145106	     13.14373208	     13.68146168	     -1.14811607	     31.77423446	    -29.04747015	    -45.00000000	    -45.00000000	  -2793.48716821	   1350.41697007	    133.82399083	   -110.29629532	   2150.10238290	   -314.20148528	     12.29707210	    -16.50572532
      4.59000000	    -31.54546636	    -27.10044520	     35.43431517	    -26.63238317	    800.65859607	    -44.48821674	     29.53308399	    -45.00000000	     39.15510715	    -45.00000000	    -45.00000000	  -1546.26252784	  -2084.07540455	     20.30757601	   -142.87661566	    359.98498147	    168.48626447	     13.10732078	     13.75694862	     -1.10568368	     31.80317628	    -29.10610329	    -45.00000000	    -45.00000000	  -2793.46306881	   1350.48527328	    133.88337171	   -110.15396230	   2150.08281471	   -314.41509118	     12.33788654	    -16.50475886
      4.60000000	    -31.60615301	    -27.03522061	     35.23154626	    -28.41227771	    802.24995039	    -44.66563594	     29.49960402	    -45.00000000	     39.15958385	    -45.00000000	    -45.00000000	  -1546.32008771	  -2083.93778426	     20.28341788	   -143.02444154	    359.93842036	    168.08142133	     13.12572652	     13.77891032	     -1.12045667	     31.84595088	    -29.12364256	    -45.00000000	    -45.00000000	  -2793.45597640	   1350.55201143	    133.89469978	   -110.04324389	   2150.04478362	   -314.64682759	     12.39737218	    -16.50703357
      4.61000000	    -31.71223879	    -26.92941314	     34.95975498	    -30.15457852	    803.86427439	    -44.85425709	     29.47823771	    -45.00000000	     39.17920833	    -45.00000000	    -45.00000000	  -1546.40549713	  -2083.85606896	     20.29155124	   -143.17357278	    359.87753808	    167.67321864	     13.13251320	     13.84218961	     -1.09886020	     31.88843836	    -29.19053692	    -45.00000000	    -45.00000000	  -2793.40788045	   1350.60943192	    133.87188385	   -109.90838542	   2150.00318627	   -314.89544137	     12.47508184	    -16.52461754
      4.62000000	    -31.90091115	    -26.83272085	     34.62173715	    -31.86166820	    805.49990969	    -45.05291991	     29.45421249	    -45.00000000	     39.12195240	    -45.00000000	    -45.00000000	  -1546.46261484	  -2083.83035072	     20.36307651	   -143.31919993	    359.90150379	    167.28251257	     13.12528134	     13.91447684	     -1.09026743	     31.93624079	    -29.32171359	    -45.00000000	    -45.00000000	  -2793.25039919	   1350.68477381	    133.77095850	   -109.70049051	   2149.95129510	   -315.14710647	     12.60606854	    -16.58794371
      4.63000000	    -32.01526966	    -26.73040708	     34.31579862	    -33.53011021	    807.14927618	    -45.25948121	     29.41156174	    -45.00000000	     39.16880162	    -45.00000000	    -45.00000000	  -1546.53009409	  -2083.79225572	     20.39497811	   -143.44669735	    359.84778290	    166.88895703	     13.12890280	     13.98777928	     -1.08430829	     31.95625505	    -29.39417362	    -45.00000000	    -45.00000000	  -2793.17167273	   1350.74994692	    133.74910379	   -109.51733473	   2149.91311298	   -315.41767027	     12.70732741	    -16.62831378
      4.64000000	    -32.11336611	    -26.63875328	     34.04034196	    -35.16050954	    808.80946792	    -45.47189572	     29.37551191	    -45.00000000	     39.20967485	    -45.00000000	    -45.00000000	  -1546.59825972	  -2083.72109533	     20.40798310	   -143.59629883	    359.77437845	    166.46856206	     13.15480447	     14.03970845	     -1.07667594	     32.00089049	    -29.45986396	    -45.00000000	    -45.00000000	  -2793.11259487	   1350.82043412	    133.73356579	   -109.35372947	   2149.88570115	   -315.70613308	     12.78491905	    -16.64836378
      4.65000000	    -32.37787017	    -26.49500011	     33.55025280	    -36.75220217	    810.47734808	    -45.68767681	     29.36513940	    -45.00000000	     39.21393618	    -45.00000000	    -45.00000000	  -1546.64420231	  -2083.85449661	     20.54959962	   -143.69280293	    359.81599394	    166.07969506	     13.15623435	     14.15519145	     -1.08473411	     32.03136918	    -29.67941142	    -45.00000000	    -45.00000000	  -2792.76788413	   1350.87404790	    133.54647065	   -109.06582171	   2149.83197072	   -315.98408708	     13.00230733	    -16.79649899
      4.66000000	    -32.42478880	    -26.39694511	     33.31355064	    -38.30494404	    812.15184726	    -45.90440657	     29.23536749	    -45.00000000	     39.34967200	    -45.00000000	    -45.00000000	  -1546.72878338	  -2083.74917286	     20.46967816	   -143.86277947	    359.68191702	    165.67140167	     13.19300355	     14.19565787	     -1.03861197	     32.07307907	    -29.67263241	    -45.00000000	    -45.00000000	  -2792.89860484	   1350.92842914	    133.63164660	   -108.88433929	   2149.84039180	   -316.26884363	     12.99788535	    -16.76420803
      4.67000000	    -32.39090432	    -26.39784230	     33.24134922	    -39.81867923	    813.83295653	    -46.11978296	     29.26528843	    -45.00000000	     39.39916550	    -45.00000000	    -45.00000000	  -1546.80367470	  -2083.57623922	     20.42634613	   -143.96989035	    359.63520306	    165.14778334	     13.20426135	     14.17973972	     -1.08920926	     32.08221568	    -29.63232168	    -45.00000000	    -45.00000000	  -2792.96194140	   1351.01070263	    133.70024966	   -108.85726114	   2149.81755720	   -316.60616152	     13.03522546	    -16.73783795
      4.68000000	    -32.54480723	    -26.28193272	     32.92393975	    -41.29017486	    815.51815846	    -46.33145738	     29.22793700	    -45.00000000	     39.29636205	    -45.00000000	    -45.00000000	  -1546.82162608	  -2083.51744227	     20.51889876	   -144.16436545	    359.66322031	    164.64125620	     13.24822392	     14.18177469	     -1.02355293	     32.17554949	    -29.77264098	    -45.00000000	    -45.00000000	  -2792.80042759	   1351.10071371	    133.61368936	   -108.64151171	   2149.77094226	   -316.89674809	     13.13411639	    -16.78365174
      4.69000000	    -32.60502245	    -26.19183047	     32.68284017	    -42.72175647	    817.21029142	    -46.53828238	     29.19121424	    -45.00000000	     39.36529550	    -45.00000000	    -45.00000000	  -1546.92288958	  -2083.46343282	     20.53154086	   -144.28499770	    359.60145273	    164.13210506	     13.26818654	     14.21174844	     -1.05399786	     32.17004970	    -29.82313493	    -45.00000000	    -45.00000000	  -2792.76804628	   1351.16458607	    133.57744984	   -108.45430761	   2149.74084274	   -317.18612910	     13.23123759	    -16.83735274
